<svg width="222" height="54" viewBox="0 0 222 54" fill="none" xmlns="http://www.w3.org/2000/svg">
<path d="M0.633161 32.4874C1.38565 32.2428 2.0817 31.8101 2.72132 31.1893C3.37975 30.5685 3.85946 29.7878 4.16046 28.8472C4.36739 28.2076 4.51789 27.4457 4.61195 26.5615C4.70601 25.6585 4.75304 24.3981 4.75304 22.7803V9.82805L2.21339 9.43299V7.68345H11.2433V9.43299L8.87292 9.79983V20.8896C8.87292 22.9026 8.8447 24.464 8.78827 25.5739C8.75064 26.665 8.65658 27.5398 8.50608 28.1982C8.11102 29.722 7.3021 30.9824 6.0793 31.9795C4.85651 32.9953 3.35153 33.6537 1.56437 33.9547L0.633161 32.4874ZM26.0191 28.9319C25.3983 28.9319 24.9468 28.8002 24.6646 28.5368C24.3824 28.2734 24.2413 27.8784 24.2413 27.3516V26.5897C23.7334 27.2106 23.0185 27.7655 22.0967 28.2546C21.1749 28.7249 20.2531 28.9601 19.3313 28.9601C17.5254 28.9601 16.2367 28.4992 15.4654 27.5774C14.6941 26.6368 14.3085 25.0942 14.3085 22.9496V14.992L12.8976 14.5969V12.9885L17.6947 12.6217H17.7229L18.2873 13.0167V22.9496C18.2873 24.3229 18.4566 25.2823 18.7952 25.8279C19.1338 26.3734 19.764 26.6462 20.6858 26.6462C21.7957 26.6462 22.8304 26.2135 23.7898 25.3481V14.992L21.8992 14.5687V12.9885L27.0067 12.6217H27.0632L27.7404 13.0167V26.9002H29.3206L29.2924 28.5086C29.2172 28.5274 28.8691 28.6027 28.2483 28.7343C27.6275 28.866 26.8845 28.9319 26.0191 28.9319ZM32.9515 8.02208L30.8634 7.65524V6.13144L36.0838 5.51064H36.1402L36.9021 6.04679V26.7308L38.9621 26.9566V28.6497H30.9763V26.9566L32.9515 26.7026V8.02208ZM44.2627 10.3924C43.5855 10.3924 43.0493 10.1949 42.6543 9.79983C42.2592 9.40477 42.0617 8.89684 42.0617 8.27604C42.0617 7.56117 42.2874 6.96859 42.7389 6.49828C43.1904 6.02798 43.7924 5.79282 44.5449 5.79282C45.2974 5.79282 45.8711 5.99976 46.2662 6.41363C46.6613 6.80869 46.8588 7.30721 46.8588 7.9092C46.8588 8.66169 46.633 9.26368 46.1815 9.71518C45.7301 10.1667 45.0998 10.3924 44.2909 10.3924H44.2627ZM42.7671 15.641L40.7636 15.1049V13.2143L45.9276 12.5934H45.984L46.7741 13.1578V26.7308L48.6648 26.9566V28.6497H40.7918V26.9566L42.7671 26.7026V15.641ZM50.377 24.2476C50.377 22.5357 51.233 21.2471 52.9449 20.3817C54.6756 19.5163 56.9049 19.0743 59.6327 19.0554V18.4064C59.6327 17.6351 59.548 17.0331 59.3787 16.6005C59.2282 16.1678 58.9366 15.848 58.5039 15.641C58.0901 15.4153 57.4787 15.3024 56.6697 15.3024C55.7479 15.3024 54.9202 15.4247 54.1865 15.6692C53.4528 15.895 52.6909 16.196 51.9008 16.5722L51.0261 14.7663C51.3082 14.5217 51.7786 14.2301 52.437 13.8915C53.1142 13.5529 53.9137 13.2613 54.8355 13.0167C55.7573 12.7534 56.7074 12.6217 57.6856 12.6217C59.1341 12.6217 60.2629 12.8098 61.0718 13.186C61.8995 13.5623 62.4921 14.1643 62.8496 14.992C63.207 15.8197 63.3857 16.9297 63.3857 18.3218V26.9566H64.9095V28.5368C64.5332 28.6309 63.9971 28.7249 63.301 28.819C62.605 28.9131 61.9936 28.9601 61.4669 28.9601C60.8272 28.9601 60.3946 28.866 60.1688 28.6779C59.9619 28.4898 59.8584 28.1041 59.8584 27.521V26.7591C59.3505 27.3234 58.692 27.8314 57.8831 28.2829C57.0742 28.7343 56.1618 28.9601 55.1459 28.9601C54.2806 28.9601 53.4811 28.7814 52.7474 28.4239C52.0325 28.0477 51.4587 27.5115 51.0261 26.8155C50.5934 26.1006 50.377 25.2447 50.377 24.2476ZM56.9519 26.618C57.347 26.618 57.7985 26.5051 58.3064 26.2793C58.8143 26.0348 59.2564 25.7432 59.6327 25.4046V20.7768C57.9396 20.7768 56.6697 21.0684 55.8232 21.6515C54.9954 22.2159 54.5816 22.9496 54.5816 23.8526C54.5816 24.7556 54.7885 25.4422 55.2024 25.9125C55.6351 26.3828 56.2182 26.618 56.9519 26.618ZM68.2507 15.641L66.4447 15.1331V13.186L71.129 12.5934H71.2136L71.9191 13.1578V14.2583L71.8909 14.9356C72.5493 14.3148 73.4053 13.7786 74.4588 13.3271C75.5122 12.8756 76.5751 12.6499 77.6474 12.6499C78.795 12.6499 79.6886 12.8662 80.3282 13.2989C80.9866 13.7128 81.4569 14.3712 81.7391 15.2742C82.0213 16.1772 82.1624 17.4 82.1624 18.9426V26.7308L83.8837 26.9566V28.6497H76.6034V26.9566L78.1271 26.7308V18.9426C78.1271 17.9643 78.0613 17.2024 77.9296 16.6569C77.7979 16.0925 77.5534 15.6881 77.1959 15.4435C76.8573 15.1801 76.3682 15.0484 75.7286 15.0484C74.6563 15.0484 73.5087 15.5093 72.2859 16.4311V26.7026L73.979 26.9566V28.6497H66.6141V26.9566L68.2507 26.7026V15.641ZM85.5673 24.2476C85.5673 22.5357 86.4233 21.2471 88.1352 20.3817C89.8659 19.5163 92.0951 19.0743 94.8229 19.0554V18.4064C94.8229 17.6351 94.7383 17.0331 94.569 16.6005C94.4185 16.1678 94.1269 15.848 93.6942 15.641C93.2803 15.4153 92.6689 15.3024 91.86 15.3024C90.9382 15.3024 90.1105 15.4247 89.3768 15.6692C88.6431 15.895 87.8812 16.196 87.0911 16.5722L86.2163 14.7663C86.4985 14.5217 86.9688 14.2301 87.6272 13.8915C88.3045 13.5529 89.104 13.2613 90.0258 13.0167C90.9476 12.7534 91.8976 12.6217 92.8759 12.6217C94.3244 12.6217 95.4531 12.8098 96.2621 13.186C97.0898 13.5623 97.6824 14.1643 98.0398 14.992C98.3972 15.8197 98.576 16.9297 98.576 18.3218V26.9566H100.1V28.5368C99.7235 28.6309 99.1874 28.7249 98.4913 28.819C97.7953 28.9131 97.1839 28.9601 96.6571 28.9601C96.0175 28.9601 95.5848 28.866 95.3591 28.6779C95.1521 28.4898 95.0487 28.1041 95.0487 27.521V26.7591C94.5407 27.3234 93.8823 27.8314 93.0734 28.2829C92.2645 28.7343 91.3521 28.9601 90.3362 28.9601C89.4708 28.9601 88.6713 28.7814 87.9376 28.4239C87.2228 28.0477 86.649 27.5115 86.2163 26.8155C85.7836 26.1006 85.5673 25.2447 85.5673 24.2476ZM92.1422 26.618C92.5372 26.618 92.9887 26.5051 93.4967 26.2793C94.0046 26.0348 94.4467 25.7432 94.8229 25.4046V20.7768C93.1298 20.7768 91.86 21.0684 91.0134 21.6515C90.1857 22.2159 89.7718 22.9496 89.7718 23.8526C89.7718 24.7556 89.9788 25.4422 90.3926 25.9125C90.8253 26.3828 91.4085 26.618 92.1422 26.618ZM110.617 9.79983L108.303 9.43299V7.68345H123.88L124.162 12.791H121.904L120.86 9.68696L114.765 9.37656V17.3623L118.97 17.2777L119.506 14.7945H121.312V21.9619H119.534L118.97 19.4223L114.765 19.3094V26.6744L119.083 26.9566V28.6497H108.444V26.9566L110.617 26.6744V9.79983ZM133.222 28.9601C130.739 28.9601 128.886 28.2358 127.663 26.7873C126.459 25.3199 125.857 23.3258 125.857 20.805C125.857 19.1119 126.167 17.6445 126.788 16.4029C127.428 15.1613 128.321 14.2113 129.469 13.5529C130.616 12.8944 131.943 12.5652 133.448 12.5652C135.329 12.5652 136.777 13.0638 137.793 14.0608C138.809 15.039 139.336 16.4405 139.374 18.2653C139.374 19.5069 139.298 20.4287 139.148 21.0307H129.977C130.052 22.7426 130.457 24.0783 131.19 25.0377C131.924 25.9784 132.968 26.4487 134.322 26.4487C135.056 26.4487 135.809 26.3264 136.58 26.0818C137.37 25.8373 137.991 25.5457 138.442 25.207L139.148 26.7591C138.64 27.3046 137.812 27.8125 136.665 28.2829C135.536 28.7343 134.388 28.9601 133.222 28.9601ZM135.423 19.3376C135.461 18.8109 135.479 18.4064 135.479 18.1242C135.479 15.6222 134.642 14.3712 132.968 14.3712C132.046 14.3712 131.331 14.738 130.823 15.4717C130.315 16.2054 130.033 17.494 129.977 19.3376H135.423ZM141.625 26.9848L143.488 26.7591V15.641L141.682 15.1331V13.186L146.056 12.5934H146.14L146.846 13.1578V13.7786L146.761 16.0643H146.846C146.978 15.6881 147.288 15.2272 147.777 14.6816C148.266 14.1172 148.878 13.6281 149.611 13.2143C150.364 12.7816 151.173 12.5652 152.038 12.5652C152.452 12.5652 152.809 12.6217 153.11 12.7345V16.9673C152.546 16.5722 151.859 16.3747 151.05 16.3747C149.677 16.3747 148.483 16.7415 147.467 17.4752V26.7308L150.74 26.9848V28.6497H141.625V26.9848ZM154.908 26.9848L156.77 26.7591V15.641L154.964 15.1331V13.186L159.338 12.5934H159.423L160.128 13.1578V13.7786L160.044 16.0643H160.128C160.26 15.6881 160.57 15.2272 161.06 14.6816C161.549 14.1172 162.16 13.6281 162.894 13.2143C163.646 12.7816 164.455 12.5652 165.321 12.5652C165.734 12.5652 166.092 12.6217 166.393 12.7345V16.9673C165.828 16.5722 165.142 16.3747 164.333 16.3747C162.96 16.3747 161.765 16.7415 160.749 17.4752V26.7308L164.022 26.9848V28.6497H154.908V26.9848ZM175.301 28.9601C172.818 28.9601 170.965 28.2358 169.742 26.7873C168.538 25.3199 167.936 23.3258 167.936 20.805C167.936 19.1119 168.247 17.6445 168.868 16.4029C169.507 15.1613 170.401 14.2113 171.548 13.5529C172.696 12.8944 174.022 12.5652 175.527 12.5652C177.408 12.5652 178.857 13.0638 179.873 14.0608C180.889 15.039 181.415 16.4405 181.453 18.2653C181.453 19.5069 181.378 20.4287 181.227 21.0307H172.056C172.132 22.7426 172.536 24.0783 173.27 25.0377C174.003 25.9784 175.047 26.4487 176.402 26.4487C177.136 26.4487 177.888 26.3264 178.659 26.0818C179.45 25.8373 180.07 25.5457 180.522 25.207L181.227 26.7591C180.719 27.3046 179.892 27.8125 178.744 28.2829C177.615 28.7343 176.468 28.9601 175.301 28.9601ZM177.502 19.3376C177.54 18.8109 177.559 18.4064 177.559 18.1242C177.559 15.6222 176.722 14.3712 175.047 14.3712C174.126 14.3712 173.411 14.738 172.903 15.4717C172.395 16.2054 172.113 17.494 172.056 19.3376H177.502ZM187.063 10.3924C186.386 10.3924 185.85 10.1949 185.455 9.79983C185.059 9.40477 184.862 8.89684 184.862 8.27604C184.862 7.56117 185.088 6.96859 185.539 6.49828C185.991 6.02798 186.593 5.79282 187.345 5.79282C188.098 5.79282 188.671 5.99976 189.066 6.41363C189.462 6.80869 189.659 7.30721 189.659 7.9092C189.659 8.66169 189.433 9.26368 188.982 9.71518C188.53 10.1667 187.9 10.3924 187.091 10.3924H187.063ZM185.567 15.641L183.564 15.1049V13.2143L188.728 12.5934H188.784L189.574 13.1578V26.7308L191.465 26.9566V28.6497H183.592V26.9566L185.567 26.7026V15.641ZM193.488 26.9848L195.35 26.7591V15.641L193.544 15.1331V13.186L197.918 12.5934H198.003L198.708 13.1578V13.7786L198.623 16.0643H198.708C198.84 15.6881 199.15 15.2272 199.639 14.6816C200.128 14.1172 200.74 13.6281 201.474 13.2143C202.226 12.7816 203.035 12.5652 203.9 12.5652C204.314 12.5652 204.672 12.6217 204.973 12.7345V16.9673C204.408 16.5722 203.722 16.3747 202.913 16.3747C201.539 16.3747 200.345 16.7415 199.329 17.4752V26.7308L202.602 26.9848V28.6497H193.488V26.9848ZM206.46 24.2476C206.46 22.5357 207.316 21.2471 209.028 20.3817C210.758 19.5163 212.988 19.0743 215.715 19.0554V18.4064C215.715 17.6351 215.631 17.0331 215.461 16.6005C215.311 16.1678 215.019 15.848 214.587 15.641C214.173 15.4153 213.561 15.3024 212.752 15.3024C211.831 15.3024 211.003 15.4247 210.269 15.6692C209.536 15.895 208.774 16.196 207.984 16.5722L207.109 14.7663C207.391 14.5217 207.861 14.2301 208.52 13.8915C209.197 13.5529 209.996 13.2613 210.918 13.0167C211.84 12.7534 212.79 12.6217 213.768 12.6217C215.217 12.6217 216.346 12.8098 217.155 13.186C217.982 13.5623 218.575 14.1643 218.932 14.992C219.29 15.8197 219.468 16.9297 219.468 18.3218V26.9566H220.992V28.5368C220.616 28.6309 220.08 28.7249 219.384 28.819C218.688 28.9131 218.076 28.9601 217.55 28.9601C216.91 28.9601 216.477 28.866 216.252 28.6779C216.045 28.4898 215.941 28.1041 215.941 27.521V26.7591C215.433 27.3234 214.775 27.8314 213.966 28.2829C213.157 28.7343 212.245 28.9601 211.229 28.9601C210.363 28.9601 209.564 28.7814 208.83 28.4239C208.115 28.0477 207.541 27.5115 207.109 26.8155C206.676 26.1006 206.46 25.2447 206.46 24.2476ZM213.035 26.618C213.43 26.618 213.881 26.5051 214.389 26.2793C214.897 26.0348 215.339 25.7432 215.715 25.4046V20.7768C214.022 20.7768 212.752 21.0684 211.906 21.6515C211.078 22.2159 210.664 22.9496 210.664 23.8526C210.664 24.7556 210.871 25.4422 211.285 25.9125C211.718 26.3828 212.301 26.618 213.035 26.618Z" fill="#101010"/>
<path d="M2.59904 40.3742L1.59124 40.1995V39.3664H3.62028C3.8084 39.3664 4.09954 39.3574 4.4937 39.3395C5.01328 39.3037 5.48358 39.2858 5.90462 39.2858C6.83627 39.2858 7.57084 39.4022 8.10834 39.6351C8.65479 39.8591 9.03999 40.1861 9.26395 40.6161C9.49686 41.0371 9.61332 41.5746 9.61332 42.2285C9.61332 43.3573 9.25947 44.2352 8.55177 44.8622C7.85303 45.4893 6.88106 45.8029 5.63587 45.8029C5.14317 45.8029 4.78932 45.7894 4.57432 45.7625V48.4097L6.37492 48.5441V49.3503H1.53749V48.5441L2.59904 48.4097V40.3742ZM4.56089 44.9026C4.76693 44.9474 5.1163 44.9697 5.609 44.9697C6.2092 44.9697 6.68846 44.7637 7.04679 44.3516C7.41408 43.9306 7.59772 43.2363 7.59772 42.2688C7.59772 41.5164 7.43199 40.9699 7.10054 40.6295C6.77804 40.2801 6.28086 40.1054 5.609 40.1054C5.35817 40.1054 5.09838 40.1234 4.82963 40.1592C4.70422 40.1771 4.61464 40.1861 4.56089 40.1861V44.9026ZM13.8747 49.4981C13.391 49.4981 12.9565 49.4578 12.5713 49.3772C12.1861 49.2966 11.7561 49.1891 11.2813 49.0547C10.9678 48.9651 10.7573 48.9158 10.6498 48.9069L10.7707 46.421H11.8591L12.1548 48.1544C12.2712 48.2798 12.4772 48.3918 12.7729 48.4903C13.0774 48.5889 13.4223 48.6381 13.8075 48.6381C14.4077 48.6381 14.8557 48.5082 15.1513 48.2485C15.4559 47.9797 15.6081 47.6079 15.6081 47.1332C15.6081 46.8196 15.5186 46.5509 15.3394 46.3269C15.1602 46.094 14.9139 45.888 14.6003 45.7088C14.2868 45.5207 13.8568 45.3057 13.3104 45.0638C12.5668 44.7234 11.9487 44.3203 11.456 43.8545C10.9723 43.3797 10.7304 42.7392 10.7304 41.9329C10.7304 41.4313 10.8603 40.9789 11.1201 40.5757C11.3799 40.1637 11.7651 39.8412 12.2757 39.6083C12.7953 39.3664 13.4268 39.2455 14.1703 39.2455C14.6093 39.2455 14.9945 39.2768 15.326 39.3395C15.6664 39.4022 16.0337 39.4873 16.4278 39.5948C16.6607 39.6575 16.8354 39.6978 16.9519 39.7158L16.8712 42.0673H15.7963L15.5141 40.4145C15.4335 40.3339 15.2722 40.2577 15.0303 40.1861C14.7885 40.1054 14.5197 40.0651 14.2241 40.0651C13.6866 40.0651 13.279 40.1905 13.0013 40.4414C12.7326 40.6832 12.5982 41.0102 12.5982 41.4223C12.5982 41.7538 12.6967 42.0404 12.8938 42.2823C13.0998 42.5242 13.3462 42.7302 13.6329 42.9004C13.9195 43.0616 14.3719 43.2946 14.99 43.5991C15.4917 43.841 15.9217 44.0784 16.28 44.3113C16.6383 44.5442 16.9474 44.8488 17.2072 45.2251C17.467 45.5923 17.5969 46.0268 17.5969 46.5285C17.5969 47.0212 17.4714 47.4915 17.2206 47.9394C16.9787 48.3873 16.5756 48.7591 16.0113 49.0547C15.4559 49.3503 14.7437 49.4981 13.8747 49.4981ZM19.7406 40.3742L18.5985 40.1995V39.3664H22.8984V40.1995L21.7159 40.3742V48.4097L22.8984 48.5575V49.3503H18.5985V48.5441L19.7406 48.4097V40.3742ZM28.5976 49.4981C27.0747 49.4981 25.9101 49.0457 25.1039 48.141C24.2977 47.2272 23.8946 45.982 23.8946 44.4054C23.8946 43.3662 24.1051 42.4614 24.5261 41.691C24.9561 40.9117 25.5429 40.3115 26.2864 39.8904C27.0299 39.4694 27.872 39.2589 28.8126 39.2589C29.2068 39.2589 29.5875 39.2858 29.9548 39.3395C30.3221 39.3843 30.7565 39.447 31.2582 39.5276C31.6344 39.5903 31.8405 39.6217 31.8763 39.6217L31.7285 42.3898H30.4923L30.0757 40.4682C29.9772 40.3697 29.807 40.2891 29.5651 40.2264C29.3232 40.1637 29.0142 40.1323 28.6379 40.1323C27.8765 40.1323 27.2628 40.4862 26.797 41.1939C26.3401 41.8926 26.1117 42.9094 26.1117 44.2441C26.1117 45.5341 26.3312 46.5867 26.7701 47.4019C27.2091 48.2171 27.8496 48.6247 28.6917 48.6247C29.0948 48.6247 29.4038 48.5889 29.6188 48.5172C29.8428 48.4366 30.0309 48.3246 30.1832 48.1813L30.7745 46.7972L31.9032 46.9047L31.6344 48.9875C31.4463 49.0054 31.2582 49.0413 31.0701 49.095C30.8909 49.1398 30.7789 49.1667 30.7341 49.1756C30.3758 49.2742 30.0399 49.3503 29.7263 49.4041C29.4218 49.4668 29.0455 49.4981 28.5976 49.4981ZM37.1196 49.4981C35.6594 49.4981 34.5665 49.0413 33.8409 48.1275C33.1153 47.2138 32.7525 45.9686 32.7525 44.3919C32.7525 43.3617 32.9406 42.457 33.3168 41.6776C33.702 40.8982 34.2395 40.298 34.9293 39.877C35.6191 39.456 36.4119 39.2455 37.3077 39.2455C38.7858 39.2455 39.8922 39.6844 40.6267 40.5623C41.3703 41.4313 41.742 42.6496 41.742 44.2173C41.742 45.2564 41.5449 46.1791 41.1508 46.9853C40.7656 47.7826 40.2236 48.4007 39.5249 48.8397C38.8261 49.2786 38.0244 49.4981 37.1196 49.4981ZM37.254 40.0651C36.5194 40.0651 35.9461 40.4279 35.534 41.1536C35.1219 41.8792 34.9159 42.9542 34.9159 44.3785C34.9159 45.7849 35.113 46.8555 35.5071 47.59C35.9102 48.3156 36.4836 48.6784 37.2271 48.6784C37.9527 48.6784 38.5216 48.2977 38.9336 47.5363C39.3457 46.7659 39.5517 45.6595 39.5517 44.2173C39.5517 42.8198 39.3547 41.7806 38.9605 41.0998C38.5663 40.41 37.9975 40.0651 37.254 40.0651ZM36.2059 38.157L37.9527 36.1549L39.3099 37.0014C39.0053 37.3508 38.6291 37.6867 38.1811 38.0092C37.7422 38.3228 37.3659 38.5422 37.0524 38.6676L36.2059 38.157ZM43.7246 40.3742L42.6899 40.1995V39.3664H46.9898V40.1995L45.6998 40.3742V48.3963L48.5754 48.2753L49.422 45.7625L50.5104 45.9104L50.0938 49.3503H42.663V48.5441L43.7246 48.4097V40.3742ZM55.4647 49.4981C54.0045 49.4981 52.9116 49.0413 52.186 48.1275C51.4604 47.2138 51.0975 45.9686 51.0975 44.3919C51.0975 43.3617 51.2857 42.457 51.6619 41.6776C52.0471 40.8982 52.5846 40.298 53.2744 39.877C53.9642 39.456 54.757 39.2455 55.6528 39.2455C57.1309 39.2455 58.2372 39.6844 58.9718 40.5623C59.7153 41.4313 60.0871 42.6496 60.0871 44.2173C60.0871 45.2564 59.89 46.1791 59.4959 46.9853C59.1107 47.7826 58.5687 48.4007 57.87 48.8397C57.1712 49.2786 56.3695 49.4981 55.4647 49.4981ZM55.599 40.0651C54.8645 40.0651 54.2911 40.4279 53.8791 41.1536C53.467 41.8792 53.261 42.9542 53.261 44.3785C53.261 45.7849 53.458 46.8555 53.8522 47.59C54.2553 48.3156 54.8286 48.6784 55.5722 48.6784C56.2978 48.6784 56.8666 48.2977 57.2787 47.5363C57.6908 46.7659 57.8968 45.6595 57.8968 44.2173C57.8968 42.8198 57.6997 41.7806 57.3056 41.0998C56.9114 40.41 56.3426 40.0651 55.599 40.0651ZM65.6574 49.4981C64.672 49.4981 63.821 49.2831 63.1043 48.8531C62.3966 48.4142 61.8591 47.814 61.4918 47.0525C61.1245 46.2911 60.9409 45.4311 60.9409 44.4726C60.9409 43.3707 61.1514 42.4256 61.5725 41.6373C62.0024 40.849 62.6071 40.2533 63.3865 39.8501C64.1659 39.447 65.0751 39.2455 66.1143 39.2455C67.0907 39.2455 68.1881 39.3843 69.4064 39.662L69.2586 42.1613H67.9014L67.5386 40.4414C67.449 40.3518 67.2788 40.2712 67.028 40.1995C66.7772 40.1189 66.4502 40.0786 66.0471 40.0786C65.1692 40.0786 64.4794 40.4369 63.9777 41.1536C63.4761 41.8613 63.2252 42.887 63.2252 44.2307C63.2252 45.5476 63.4402 46.6136 63.8702 47.4288C64.3002 48.235 64.9542 48.6381 65.8321 48.6381C66.1904 48.6381 66.5263 48.5933 66.8399 48.5038C67.1534 48.4142 67.3908 48.2977 67.5521 48.1544V45.2654L66.1277 45.131V44.2307H70.2126V45.131L69.5005 45.2519V48.8128C69.3123 48.8218 68.9719 48.8979 68.4792 49.0413C67.9059 49.1935 67.4132 49.3055 67.0011 49.3772C66.598 49.4578 66.1501 49.4981 65.6574 49.4981ZM74.1382 39.3126H76.1941L79.2982 48.4097L80.0775 48.5441V49.3503H76.1135V48.5441L77.1213 48.4097L76.5973 46.6628H73.117L72.5929 48.4231L73.6814 48.5441V49.3503H70.2548L70.2414 48.5441L71.0476 48.4097L74.1382 39.3126ZM75.0654 41.5835L74.8235 40.5354L74.5682 41.597L73.3723 45.7222H76.3285L75.0654 41.5835Z" fill="#101010"/>
</svg>
